# xmcd
#
# Track frame offsets:
#	150
#	1650
#	16978
#	40273
#	61964
#	64084
#	81573
#	101808
#	121332
#	145022
#	164081
#	185312
#	205650
#	210641
#	229921
#	249192
#	269928
#	291028
#	307931
#	329295
#
# Disc length: 4491 seconds
#
# Revision: 0
# Processed by: cddbd v1.5.2PL0 Copyright (c) Steve Scherf et al.
# Submitted via: EasyCDDAExtractor 11.0.2.1
#
DISCID=1e118914
DTITLE=Eastside Chedda Boyz - Chedda Make It Betta
DYEAR=1900
DGENRE=Rap
TTITLE0=Intro
TTITLE1=Bow Down
TTITLE2=First Warning
TTITLE3=I'm A Chedda Boy 2
TTITLE4=Skit
TTITLE5=Hard Time Hustler (Feat. Tony Diamond)
TTITLE6=What You Know About (Feat. Yukmouth)
TTITLE7=Hustle
TTITLE8=Oh Boy 2
TTITLE9=Whole Lot Of Cheese (Feat. BadAzz)
TTITLE10=Boss Up (Feat. Wacko)
TTITLE11=Claiming Chedda Boyz
TTITLE12=Skit
TTITLE13=Join Us
TTITLE14=Been Rich
TTITLE15=Getting Money (Feat. Troy)
TTITLE16=Hatin' Me (Feat. B-Legit)
TTITLE17=Who Pop Mo' Bottles
TTITLE18=How Real Is That (Feat. N.M.K.)
TTITLE19=Outro
EXTD=
EXTT0=
EXTT1=
EXTT2=
EXTT3=
EXTT4=
EXTT5=
EXTT6=
EXTT7=
EXTT8=
EXTT9=
EXTT10=
EXTT11=
EXTT12=
EXTT13=
EXTT14=
EXTT15=
EXTT16=
EXTT17=
EXTT18=
EXTT19=
PLAYORDER=
